<?xml version="1.0" encoding="UTF-8" standalone="no"?>
<!-- Created with Inkscape (http://www.inkscape.org/) -->
<svg
   xmlns:dc="http://purl.org/dc/elements/1.1/"
   xmlns:cc="http://creativecommons.org/ns#"
   xmlns:rdf="http://www.w3.org/1999/02/22-rdf-syntax-ns#"
   xmlns:svg="http://www.w3.org/2000/svg"
   xmlns="http://www.w3.org/2000/svg"
   xmlns:sodipodi="http://sodipodi.sourceforge.net/DTD/sodipodi-0.dtd"
   xmlns:inkscape="http://www.inkscape.org/namespaces/inkscape"
   width="230"
   height="60"
   id="svg7850"
   sodipodi:version="0.32"
   inkscape:version="0.46"
   version="1.0"
   sodipodi:docname="newcolor.svg"
   inkscape:output_extension="org.inkscape.output.svg.inkscape"
   inkscape:export-filename="/home/loyd/Desktop/newlogo.png"
   inkscape:export-xdpi="104.86957"
   inkscape:export-ydpi="104.86957">
  <defs
     id="defs7852">
    <inkscape:perspective
       sodipodi:type="inkscape:persp3d"
       inkscape:vp_x="0 : 526.18109 : 1"
       inkscape:vp_y="0 : 1000 : 0"
       inkscape:vp_z="744.09448 : 526.18109 : 1"
       inkscape:persp3d-origin="372.04724 : 350.78739 : 1"
       id="perspective7858" />
  </defs>
  <sodipodi:namedview
     id="base"
     pagecolor="#3366cc"
     bordercolor="#666666"
     borderopacity="1.0"
     gridtolerance="10000"
     guidetolerance="10"
     objecttolerance="10"
     inkscape:pageopacity="1"
     inkscape:pageshadow="2"
     inkscape:zoom="4"
     inkscape:cx="125.51388"
     inkscape:cy="50.200022"
     inkscape:document-units="px"
     inkscape:current-layer="layer1"
     showgrid="false"
     inkscape:window-width="1472"
     inkscape:window-height="816"
     inkscape:window-x="468"
     inkscape:window-y="185" />
  <metadata
     id="metadata7855">
    <rdf:RDF>
      <cc:Work
         rdf:about="">
        <dc:format>image/svg+xml</dc:format>
        <dc:type
           rdf:resource="http://purl.org/dc/dcmitype/StillImage" />
      </cc:Work>
    </rdf:RDF>
  </metadata>
  <g
     inkscape:label="Layer 1"
     inkscape:groupmode="layer"
     id="layer1">
    <flowRoot
       xml:space="preserve"
       id="flowRoot7860"
       style="font-size:48px;font-style:normal;font-variant:normal;font-weight:normal;font-stretch:normal;fill:#000000;fill-opacity:1;stroke:none;stroke-width:1px;stroke-linecap:butt;stroke-linejoin:miter;stroke-opacity:1;font-family:Times New Roman;-inkscape-font-specification:Times New Roman"><flowRegion
         id="flowRegion7862"><rect
           id="rect7864"
           width="223.44574"
           height="52.325901"
           x="5.3033009"
           y="4.4921174" /></flowRegion><flowPara
         id="flowPara7866"
         style="font-style:normal;font-variant:normal;font-weight:normal;font-stretch:normal;font-family:Electron;-inkscape-font-specification:Electron">SAGEstats_Thechoechoecihmoe</flowPara></flowRoot>    <path
       style="font-size:48px;font-style:normal;font-variant:normal;font-weight:normal;font-stretch:normal;fill:#ff872b;fill-opacity:1;stroke:none;stroke-width:1px;stroke-linecap:butt;stroke-linejoin:miter;stroke-opacity:1;font-family:Times New Roman;-inkscape-font-specification:Times New Roman"
       d="M 78.112491,27.163882 L 68.245303,27.163882 L 68.245303,23.71857 C 68.245288,21.546724 68.151538,20.187351 67.964053,19.640445 C 67.776539,19.093602 67.331227,18.820165 66.628116,18.820132 C 66.018728,18.820165 65.604666,19.054539 65.385928,19.523257 C 65.167166,19.992038 65.057792,21.195162 65.057803,23.132632 L 65.057803,41.34357 C 65.057792,43.046703 65.167166,44.171702 65.385928,44.71857 C 65.604666,45.249826 66.042166,45.51545 66.698428,45.515445 C 67.417164,45.51545 67.901539,45.210763 68.151553,44.601382 C 68.417163,43.992014 68.549976,42.804516 68.549991,41.038882 L 68.549991,36.538882 L 66.557803,36.538882 L 66.557803,30.773257 L 78.112491,30.773257 L 78.112491,51.140445 L 71.901553,51.140445 L 70.987491,48.421695 C 70.315599,49.593571 69.464037,50.476383 68.432803,51.070132 C 67.417164,51.648257 66.21404,51.937319 64.823428,51.93732 C 63.167168,51.937319 61.612482,51.538882 60.159366,50.742007 C 58.72186,49.929508 57.628111,48.929509 56.878116,47.742007 C 56.128113,46.554512 55.659363,45.312326 55.471866,44.015445 C 55.284364,42.702953 55.190614,40.742018 55.190616,38.132632 L 55.190616,26.859195 C 55.190614,23.234223 55.385926,20.601413 55.776553,18.960757 C 56.167175,17.320166 57.284362,15.820168 59.128116,14.460757 C 60.987483,13.085795 63.385918,12.398296 66.323428,12.398258 C 69.214037,12.398296 71.612472,12.992045 73.518741,14.179507 C 75.424969,15.367043 76.667155,16.781104 77.245303,18.421695 C 77.823404,20.046726 78.112466,22.413911 78.112491,25.523257 L 78.112491,27.163882"
       id="path7887" />
    <path
       style="font-size:48px;font-style:normal;font-variant:normal;font-weight:normal;font-stretch:normal;fill:#ffd82b;fill-opacity:1;stroke:none;stroke-width:1px;stroke-linecap:butt;stroke-linejoin:miter;stroke-opacity:1;font-family:Times New Roman;-inkscape-font-specification:Times New Roman"
       d="M 42.327754,11.483827 L 31.769374,48.268171 L 41.876909,49.771694 L 43.466546,43.120699 L 46.959364,43.640264 L 46.451573,50.452188 L 56.43547,51.93732 L 56.422665,13.580483 L 42.327754,11.483827 z M 48.531,20.968509 C 48.09676,27.285895 47.811967,32.598684 47.674328,36.922346 L 44.336059,36.425769 C 45.077602,33.139755 46.475147,27.992491 48.531,20.968509 z"
       id="path7891" />
    <path
       style="font-size:48px;font-style:normal;font-variant:normal;font-weight:normal;font-stretch:normal;fill:#ff872b;fill-opacity:1;stroke:none;stroke-width:1px;stroke-linecap:butt;stroke-linejoin:miter;stroke-opacity:1;font-family:Times New Roman;-inkscape-font-specification:Times New Roman"
       d="M 35.02234,24.679507 L 25.858277,24.679507 L 25.858277,21.867007 C 25.858263,20.554538 25.741076,19.718601 25.506715,19.359195 C 25.272326,18.999852 24.881702,18.820165 24.33484,18.820132 C 23.741078,18.820165 23.287953,19.062352 22.975465,19.546695 C 22.678579,20.031101 22.530142,20.765475 22.530152,21.74982 C 22.530142,23.015473 22.702017,23.968597 23.045777,24.609195 C 23.373891,25.249846 24.303577,26.023282 25.83484,26.929507 C 30.225446,29.538904 32.991069,31.679527 34.131715,33.351382 C 35.272316,35.023273 35.842628,37.718583 35.842652,41.43732 C 35.842628,44.140452 35.522316,46.132637 34.881715,47.413882 C 34.256692,48.695135 33.037944,49.773259 31.225465,50.648257 C 29.412947,51.507632 27.303574,51.937319 24.89734,51.93732 C 22.256704,51.937319 19.998894,51.437319 18.123902,50.43732 C 16.264523,49.437321 15.045774,48.163885 14.467652,46.617007 C 13.889525,45.070138 13.600463,42.874828 13.600465,40.03107 L 13.600465,37.546695 L 22.764527,37.546695 L 22.764527,42.163882 C 22.764516,43.585765 22.889516,44.499826 23.139527,44.90607 C 23.405141,45.312326 23.866078,45.51545 24.52234,45.515445 C 25.178577,45.51545 25.662951,45.257638 25.975465,44.742007 C 26.303575,44.226389 26.467638,43.460765 26.467652,42.445132 C 26.467638,40.210768 26.162951,38.749832 25.55359,38.06232 C 24.928577,37.374834 23.389516,36.226397 20.936402,34.617007 C 18.483271,32.992025 16.858272,31.812339 16.061402,31.077945 C 15.264524,30.343591 14.600462,29.327967 14.069215,28.03107 C 13.553588,26.734219 13.295776,25.077971 13.295777,23.06232 C 13.295776,20.156101 13.662963,18.031103 14.39734,16.68732 C 15.147337,15.343606 16.35046,14.296732 18.006715,13.546695 C 19.662957,12.781108 21.662955,12.398296 24.006715,12.398258 C 26.5692,12.398296 28.748885,12.812358 30.545777,13.640445 C 32.358257,14.468606 33.553568,15.51548 34.131715,16.78107 C 34.725442,18.031103 35.022317,20.163913 35.02234,23.179507 L 35.02234,24.679507"
       id="path7893" />
    <path
       style="font-size:48px;font-style:normal;font-variant:normal;font-weight:normal;font-stretch:normal;fill:#ff872b;fill-opacity:1;stroke:none;stroke-width:1px;stroke-linecap:butt;stroke-linejoin:miter;stroke-opacity:1;font-family:Times New Roman;-inkscape-font-specification:Times New Roman"
       d="M 79.696068,13.992007 L 96.1492,13.992007 L 96.1492,21.585757 L 89.563255,21.585757 L 89.563255,28.78107 L 95.72732,28.78107 L 95.72732,35.99982 L 89.563255,35.99982 L 89.563255,44.34357 L 96.80545,44.34357 L 96.80545,51.93732 L 79.696068,51.93732 L 79.696068,13.992007"
       id="path7885" />
    <path
       style="font-size:48px;font-style:normal;font-variant:normal;font-weight:normal;font-stretch:normal;fill:#ff872b;fill-opacity:1;stroke:none;stroke-width:1px;stroke-linecap:butt;stroke-linejoin:miter;stroke-opacity:1;font-family:Times New Roman;-inkscape-font-specification:Times New Roman"
       d="M 118.71951,33.223184 L 110.32889,33.223184 L 110.32889,31.535684 C 110.32887,30.098209 110.24294,29.191959 110.07107,28.816934 C 109.91481,28.426335 109.50856,28.231023 108.85232,28.230997 C 108.32106,28.231023 107.92262,28.41071 107.65701,28.770059 C 107.39138,29.113835 107.25856,29.637271 107.25857,30.340372 C 107.25856,31.29352 107.32106,31.996644 107.44607,32.449747 C 107.58669,32.887268 107.98512,33.371643 108.64139,33.902872 C 109.31325,34.434142 110.68043,35.207578 112.74295,36.223184 C 115.49293,37.566951 117.29762,38.832575 118.15701,40.020059 C 119.01636,41.207572 119.44605,42.934133 119.44607,45.199747 C 119.44605,47.731003 119.11793,49.645064 118.4617,50.941934 C 117.80543,52.223186 116.70387,53.215373 115.15701,53.918497 C 113.62574,54.605997 111.77418,54.949746 109.60232,54.949747 C 107.19606,54.949746 105.13357,54.574747 103.41482,53.824747 C 101.71169,53.074748 100.53982,52.059124 99.8992,50.777872 C 99.25857,49.496627 98.93826,47.559129 98.93826,44.965372 L 98.93826,43.465372 L 107.32889,43.465372 L 107.32889,45.434122 C 107.32888,47.106004 107.43044,48.19194 107.63357,48.691934 C 107.85231,49.191939 108.27419,49.441939 108.8992,49.441934 C 109.57106,49.441939 110.03981,49.277877 110.30545,48.949747 C 110.57106,48.606003 110.70387,47.895066 110.70389,46.816934 C 110.70387,45.332568 110.532,44.402882 110.18826,44.027872 C 109.82887,43.652882 107.99294,42.543509 104.68045,40.699747 C 101.89919,39.137262 100.20388,37.723201 99.59451,36.457559 C 98.98513,35.176328 98.68045,33.660705 98.68045,31.910684 C 98.68045,29.426334 99.00857,27.598211 99.66482,26.426309 C 100.32107,25.238838 101.43044,24.324777 102.99295,23.684122 C 104.57107,23.043528 106.39919,22.723216 108.47732,22.723184 C 110.53981,22.723216 112.28981,22.988841 113.72732,23.520059 C 115.18043,24.035715 116.2898,24.723214 117.05545,25.582559 C 117.83668,26.441962 118.30543,27.238836 118.4617,27.973184 C 118.63355,28.707585 118.71949,29.856021 118.71951,31.418497 L 118.71951,33.223184"
       id="path7883" />
    <path
       style="font-size:48px;font-style:normal;font-variant:normal;font-weight:normal;font-stretch:normal;fill:#ff872b;fill-opacity:1;stroke:none;stroke-width:1px;stroke-linecap:butt;stroke-linejoin:miter;stroke-opacity:1;font-family:Times New Roman;-inkscape-font-specification:Times New Roman"
       d="M 147.09451,22.730997 C 144.42262,22.731029 142.23513,23.231028 140.56326,24.230997 C 138.89138,25.231026 137.78202,26.387275 137.21951,27.699747 C 136.67263,28.996648 136.407,30.82477 136.40701,33.230997 L 136.40701,35.324747 L 145.28201,35.324747 L 145.28201,32.074747 C 145.282,30.340396 145.34449,29.262272 145.50076,28.855997 C 145.65699,28.434148 146.07886,28.231023 146.71951,28.230997 C 147.282,28.231023 147.67263,28.481023 147.90701,28.980997 C 148.157,29.465397 148.28201,30.512271 148.28201,32.137247 C 148.282,33.434143 148.15699,34.309142 147.93826,34.730997 C 147.71949,35.152891 146.07886,35.949765 142.96951,37.168497 C 140.06325,38.293513 138.23514,39.293512 137.50076,40.137247 C 136.76638,40.98101 136.407,42.559134 136.40701,44.887247 L 136.40701,47.449747 C 136.40701,50.590376 137.0945,52.637249 138.46951,53.574747 C 139.86013,54.496622 141.37576,54.949746 143.03201,54.949747 C 144.29763,54.949746 145.37575,54.684122 146.28201,54.137247 C 147.20388,53.574748 147.95387,52.715373 148.53201,51.605997 L 148.53201,54.387247 L 157.75076,54.387247 L 157.75076,38.762247 C 157.75074,33.621642 157.57887,30.246646 157.25076,28.605997 C 156.92262,26.949774 155.93823,25.543526 154.31326,24.418497 C 152.68824,23.277903 150.29761,22.731029 147.09451,22.730997 z M 148.28201,39.605997 L 148.28201,45.980997 C 148.282,47.543504 148.18826,48.512253 148.00076,48.887247 C 147.82887,49.246627 147.43825,49.449752 146.84451,49.449747 C 146.2195,49.449752 145.81324,49.199752 145.59451,48.730997 C 145.39137,48.262253 145.28201,47.215379 145.28201,45.605997 C 145.282,44.199757 145.39138,43.137258 145.62576,42.387247 C 145.87575,41.637259 146.76638,40.715386 148.28201,39.605997 z"
       id="path7879" />
    <path
       style="font-size:48px;font-style:normal;font-variant:normal;font-weight:normal;font-stretch:normal;fill:#ff872b;fill-opacity:1;stroke:none;stroke-width:1px;stroke-linecap:butt;stroke-linejoin:miter;stroke-opacity:1;font-family:Times New Roman;-inkscape-font-specification:Times New Roman"
       d="M 194.75076,33.223184 L 186.36014,33.223184 L 186.36014,31.535684 C 186.36012,30.098209 186.27419,29.191959 186.10232,28.816934 C 185.94606,28.426335 185.53981,28.231023 184.88357,28.230997 C 184.35231,28.231023 183.95387,28.41071 183.68826,28.770059 C 183.42263,29.113835 183.28981,29.637271 183.28982,30.340372 C 183.28981,31.29352 183.35231,31.996644 183.47732,32.449747 C 183.61794,32.887268 184.01637,33.371643 184.67264,33.902872 C 185.3445,34.434142 186.71168,35.207578 188.7742,36.223184 C 191.52418,37.566951 193.32887,38.832575 194.18826,40.020059 C 195.04761,41.207572 195.4773,42.934133 195.47732,45.199747 C 195.4773,47.731003 195.14918,49.645064 194.49295,50.941934 C 193.83668,52.223186 192.73512,53.215373 191.18826,53.918497 C 189.65699,54.605997 187.80543,54.949746 185.63357,54.949747 C 183.22731,54.949746 181.16482,54.574747 179.44607,53.824747 C 177.74294,53.074748 176.57107,52.059124 175.93045,50.777872 C 175.28982,49.496627 174.96951,47.559129 174.96951,44.965372 L 174.96951,43.465372 L 183.36014,43.465372 L 183.36014,45.434122 C 183.36013,47.106004 183.46169,48.19194 183.66482,48.691934 C 183.88356,49.191939 184.30544,49.441939 184.93045,49.441934 C 185.60231,49.441939 186.07106,49.277877 186.3367,48.949747 C 186.60231,48.606003 186.73512,47.895066 186.73514,46.816934 C 186.73512,45.332568 186.56325,44.402882 186.21951,44.027872 C 185.86012,43.652882 184.02419,42.543509 180.7117,40.699747 C 177.93044,39.137262 176.23513,37.723201 175.62576,36.457559 C 175.01638,35.176328 174.7117,33.660705 174.7117,31.910684 C 174.7117,29.426334 175.03982,27.598211 175.69607,26.426309 C 176.35232,25.238838 177.46169,24.324777 179.0242,23.684122 C 180.60232,23.043528 182.43044,22.723216 184.50857,22.723184 C 186.57106,22.723216 188.32106,22.988841 189.75857,23.520059 C 191.21168,24.035715 192.32105,24.723214 193.0867,25.582559 C 193.86793,26.441962 194.33668,27.238836 194.49295,27.973184 C 194.6648,28.707585 194.75074,29.856021 194.75076,31.418497 L 194.75076,33.223184"
       id="text7868" />
    <path
       sodipodi:nodetypes="ccccccc"
       id="path8406"
       d="M 138.9924,22.797038 L 132.1865,22.797038 L 132.1865,51.93732 L 122.69431,51.93732 L 122.69431,22.797038 L 116.86068,22.797038 L 127.44041,16.368271"
       style="font-size:48px;font-style:normal;font-variant:normal;font-weight:normal;font-stretch:normal;fill:#ffd82b;fill-opacity:1;stroke:none;stroke-width:1px;stroke-linecap:butt;stroke-linejoin:miter;stroke-opacity:1;font-family:Times New Roman;-inkscape-font-specification:Times New Roman" />
    <path
       style="font-size:48px;font-style:normal;font-variant:normal;font-weight:normal;font-stretch:normal;fill:#ffd82b;fill-opacity:1;stroke:none;stroke-width:1px;stroke-linecap:butt;stroke-linejoin:miter;stroke-opacity:1;font-family:Times New Roman;-inkscape-font-specification:Times New Roman"
       d="M 177.29709,22.797038 L 170.49119,22.797038 L 170.49119,51.93732 L 160.999,51.93732 L 160.999,22.797038 L 155.16537,22.797038 L 165.7451,16.368271"
       id="path8428"
       sodipodi:nodetypes="ccccccc" />
  </g>
</svg>
